# xmcd CD database file
#
# Track frame offsets:
#	150
#	18497
#	38921
#
# Disc length: 749 seconds
#
# Revision: 1
# Processed by: cddbd v1.5.2PL0 Copyright (c) Steve Scherf et al.
# Submitted via: Feurio! 1.68 - http://www.feurio.com
#
DISCID=1c02eb03
DTITLE=Paul Brady - Believe In Magic
DYEAR=1900
DGENRE=
TTITLE0=Believe In Magic
TTITLE1=Believe In Magic (live)
TTITLE2=You Win Again
EXTD=
EXTT0=
EXTT1=
EXTT2=
PLAYORDER=
